<svg width="39" height="24" viewBox="0 0 39 24" fill="none" xmlns="http://www.w3.org/2000/svg">
<path d="M10.0882 20.0607C13.0846 20.0607 15.5846 17.8732 16.0625 14.9963H17.5055C17.8548 15.6673 18.5625 16.1268 19.3897 16.1268C20.557 16.1268 21.4945 15.1893 21.4945 14.0312C21.4945 13.5349 21.3199 13.0754 21.0349 12.7169L25.5478 7.90993L25.8695 8.73713C24.0588 9.78493 22.8364 11.7426 22.8364 13.9945C22.8364 17.3493 25.557 20.0607 28.9301 20.0607C32.2757 20.0607 34.9871 17.3401 34.9871 13.9945C34.9871 10.6305 32.2757 7.91912 28.9301 7.91912C28.4246 7.91912 27.9283 7.98346 27.4688 8.10294L24.7849 1.375C24.5827 0.869485 24.2335 0.658088 23.6268 0.658088H20.796C20.3088 0.658088 19.9228 1.04412 19.9228 1.53125C19.9228 2.01838 20.3088 2.40441 20.796 2.40441H23.2592C23.3419 2.40441 23.3695 2.42279 23.3971 2.48713L24.9044 6.29228L16.6967 7.42279L15.4926 5.18015H16.5312C17.0092 5.18015 17.4044 4.79412 17.4044 4.30698C17.4044 3.82904 17.0092 3.43382 16.5312 3.43382H12.4136C11.9357 3.43382 11.5404 3.82904 11.5404 4.30698C11.5404 4.79412 11.9265 5.18015 12.4136 5.18015H13.5901L14.8952 7.66176L13.5993 9.04044C12.6066 8.33272 11.3934 7.91912 10.0882 7.91912C6.71507 7.91912 4.00368 10.6305 4.00368 13.9853C4.00368 17.3401 6.72426 20.0607 10.0882 20.0607ZM19.3897 11.9265C19.2978 11.9265 19.2151 11.9265 19.1232 11.9357L17.5147 8.94853L23.1489 8.16728L19.546 11.9265C19.4908 11.9265 19.4449 11.9265 19.3897 11.9265ZM16.1176 13.3603C15.9982 12.1654 15.5294 11.0625 14.8125 10.1801L15.7132 9.22426L17.625 12.864C17.5239 13.0202 17.4412 13.1857 17.386 13.3603H16.1176ZM10.0882 18.2868C7.68934 18.2868 5.77757 16.3842 5.77757 13.9853C5.77757 11.614 7.70772 9.69301 10.0882 9.69301C10.9246 9.69301 11.7059 9.93198 12.3676 10.3456L10.2169 12.625C10.1801 12.6158 10.1342 12.6158 10.0882 12.6158C9.31618 12.6158 8.71875 13.2132 8.70956 13.9853C8.70037 14.7482 9.30698 15.3548 10.0882 15.3548C10.4375 15.3548 10.7684 15.2261 11.0074 14.9963H14.261C13.8107 16.8897 12.1103 18.2868 10.0882 18.2868ZM28.9301 18.296C26.5404 18.296 24.6195 16.3842 24.6195 13.9945C24.6195 12.4963 25.3732 11.182 26.5313 10.4099L27.6985 13.3603C27.6066 13.5441 27.5515 13.7555 27.5423 13.9853C27.5331 14.7482 28.1489 15.364 28.9301 15.364C29.6838 15.364 30.2904 14.7482 30.2904 13.9945C30.2904 13.3419 29.8676 12.818 29.2794 12.6618L28.1305 9.76654C28.3879 9.72059 28.6544 9.69301 28.9301 9.69301C31.2923 9.69301 33.2224 11.6232 33.2224 13.9945C33.2224 16.3658 31.2923 18.296 28.9301 18.296ZM11.7702 13.3603L13.5717 11.4761C13.9669 12.0184 14.2335 12.6618 14.3346 13.3603H11.7702ZM19.3989 14.6746C19.0221 14.6746 18.7279 14.3805 18.7279 14.0404C18.7279 13.6728 19.0312 13.3695 19.3989 13.3695C19.7574 13.3695 20.0423 13.6636 20.0423 14.0404C20.0423 14.3897 19.7574 14.6746 19.3989 14.6746Z" fill="#FFF7F7"/>
<rect width="32" height="2" rx="1" transform="matrix(1 0 0 -1 3 24)" fill="#E14922"/>
</svg>
