<svg width="25" height="25" viewBox="0 0 25 25" fill="none" xmlns="http://www.w3.org/2000/svg">
<path d="M19.971 9.54132C20.2341 9.80944 20.5022 9.94098 20.7653 9.94098H23.5478C23.8108 9.94098 24.0132 9.80944 24.1447 9.54132C24.2763 9.27319 24.342 9.01012 24.342 8.74199V7.13828C24.342 6.16695 24.1549 5.24621 23.7805 4.37099C23.4061 3.49578 22.8901 2.73693 22.2324 2.09443C21.5798 1.45194 20.8159 0.940978 19.9407 0.561552C19.0705 0.187184 18.1346 0 17.1431 0H7.54103C6.5444 0 5.61354 0.187184 4.73833 0.561552C3.86818 0.940978 3.10427 1.45194 2.45165 2.09443C1.79398 2.73693 1.27796 3.49578 0.903593 4.37099C0.529225 5.24621 0.342041 6.16695 0.342041 7.13828V16.973C0.342041 17.9696 0.529225 18.8954 0.903593 19.7605C1.27796 20.6206 1.79398 21.3794 2.45165 22.0371C3.10427 22.6897 3.86818 23.2057 4.73833 23.5852C5.61354 23.9595 6.5444 24.1467 7.54103 24.1467H17.1431C18.1346 24.1467 19.0705 23.9646 19.9407 23.5902C20.8159 23.2158 21.5798 22.7049 22.2324 22.0523C22.8901 21.4047 23.4061 20.6509 23.7805 19.7909C24.1549 18.9309 24.342 18.0051 24.342 17.0084V15.4047C24.342 15.1417 24.2763 14.8735 24.1447 14.6054C24.0132 14.3373 23.8108 14.2057 23.5478 14.2057H20.7653C20.5022 14.2057 20.2341 14.3373 19.971 14.6054C19.7029 14.8735 19.5714 15.1417 19.5714 15.4047V17.0084C19.5714 17.7875 19.3387 18.4503 18.8783 18.9966C18.4179 19.543 17.8463 19.8162 17.1633 19.8162H7.52079C6.83783 19.8162 6.26616 19.543 5.80579 18.9916C5.34035 18.4452 5.1127 17.7825 5.1127 17.0034V7.14334C5.1127 6.36425 5.34035 5.70152 5.80579 5.15514C6.26616 4.60877 6.83783 4.33558 7.52079 4.33558H17.1633C17.8463 4.33558 18.4179 4.60877 18.8783 5.15514C19.3387 5.70152 19.5714 6.35919 19.5714 7.13828V8.74199C19.5714 9.01012 19.7029 9.27319 19.971 9.54132Z" fill="#FFF7F7"/>
</svg>
