<svg width="22" height="26" viewBox="0 0 22 26" fill="none" xmlns="http://www.w3.org/2000/svg">
<path fill-rule="evenodd" clip-rule="evenodd" d="M11 3C8.87827 3 6.84344 3.84285 5.34315 5.34315C3.84285 6.84344 3 8.87827 3 11C3 14.0981 5.01574 17.1042 7.22595 19.4373C8.31061 20.5822 9.39867 21.5195 10.2167 22.1708C10.5211 22.4133 10.787 22.6152 11 22.7726C11.213 22.6152 11.4789 22.4133 11.7833 22.1708C12.6013 21.5195 13.6894 20.5822 14.774 19.4373C16.9843 17.1042 19 14.0981 19 11C19 8.87827 18.1571 6.84344 16.6569 5.34315C15.1566 3.84285 13.1217 3 11 3ZM11 24C10.4453 24.8321 10.4448 24.8317 10.4448 24.8317L10.4419 24.8298L10.4352 24.8253L10.4123 24.8098C10.3928 24.7966 10.3651 24.7776 10.3296 24.753C10.2585 24.7038 10.1565 24.6321 10.0278 24.5392C9.77055 24.3534 9.40636 24.0822 8.97082 23.7354C8.10133 23.043 6.93939 22.0428 5.77405 20.8127C3.48426 18.3958 1 14.9019 1 11C1 8.34784 2.05357 5.8043 3.92893 3.92893C5.8043 2.05357 8.34784 1 11 1C13.6522 1 16.1957 2.05357 18.0711 3.92893C19.9464 5.8043 21 8.34784 21 11C21 14.9019 18.5157 18.3958 16.226 20.8127C15.0606 22.0428 13.8987 23.043 13.0292 23.7354C12.5936 24.0822 12.2295 24.3534 11.9722 24.5392C11.8435 24.6321 11.7415 24.7038 11.6704 24.753C11.6349 24.7776 11.6072 24.7966 11.5877 24.8098L11.5648 24.8253L11.5581 24.8298L11.556 24.8312C11.556 24.8312 11.5547 24.8321 11 24ZM11 24L11.5547 24.8321C11.2188 25.056 10.7807 25.0556 10.4448 24.8317L11 24Z" fill="#E14922"/>
<path d="M10.4448 24.8317C10.4448 24.8317 10.4453 24.8321 11 24M10.4448 24.8317C10.7807 25.0556 11.2188 25.056 11.5547 24.8321L11 24M10.4448 24.8317L11 24M10.4448 24.8317L10.4419 24.8298L10.4352 24.8253L10.4123 24.8098C10.3928 24.7966 10.3651 24.7776 10.3296 24.753C10.2585 24.7038 10.1565 24.6321 10.0278 24.5392C9.77055 24.3534 9.40636 24.0822 8.97082 23.7354C8.10133 23.043 6.93939 22.0428 5.77405 20.8127C3.48426 18.3958 1 14.9019 1 11C1 8.34784 2.05357 5.8043 3.92893 3.92893C5.8043 2.05357 8.34784 1 11 1C13.6522 1 16.1957 2.05357 18.0711 3.92893C19.9464 5.8043 21 8.34784 21 11C21 14.9019 18.5157 18.3958 16.226 20.8127C15.0606 22.0428 13.8987 23.043 13.0292 23.7354C12.5936 24.0822 12.2295 24.3534 11.9722 24.5392C11.8435 24.6321 11.7415 24.7038 11.6704 24.753C11.6349 24.7776 11.6072 24.7966 11.5877 24.8098L11.5648 24.8253L11.5581 24.8298L11.556 24.8312C11.556 24.8312 11.5547 24.8321 11 24M5.34315 5.34315C6.84344 3.84285 8.87827 3 11 3C13.1217 3 15.1566 3.84285 16.6569 5.34315C18.1571 6.84344 19 8.87827 19 11C19 14.0981 16.9843 17.1042 14.774 19.4373C13.6894 20.5822 12.6013 21.5195 11.7833 22.1708C11.4789 22.4133 11.213 22.6152 11 22.7726C10.787 22.6152 10.5211 22.4133 10.2167 22.1708C9.39867 21.5195 8.31061 20.5822 7.22595 19.4373C5.01574 17.1042 3 14.0981 3 11C3 8.87827 3.84285 6.84344 5.34315 5.34315Z" stroke="#E14922" stroke-linecap="round" stroke-linejoin="round"/>
<circle cx="11" cy="11" r="3" fill="#FFF7F7"/>
</svg>
