<svg width="24" height="24" viewBox="0 0 24 24" fill="none" xmlns="http://www.w3.org/2000/svg">
<circle cx="12" cy="12" r="10.5" stroke="#17BEBB" stroke-width="3"/>
<path d="M9.83984 17H14.5293C15.0967 17 15.4658 16.6787 15.4658 16.1455C15.4658 15.6123 15.0898 15.291 14.5293 15.291H10.8721V12.8027H14.3516C14.8711 12.8027 15.2129 12.502 15.2129 12.0098C15.2129 11.5176 14.8643 11.2168 14.3516 11.2168H10.8721V8.84473H14.5293C15.0898 8.84473 15.4658 8.52344 15.4658 7.99023C15.4658 7.45703 15.0967 7.13574 14.5293 7.13574H9.83984C9.19043 7.13574 8.80762 7.53223 8.80762 8.20898V15.9199C8.80762 16.6035 9.19043 17 9.83984 17Z" fill="white"/>
</svg>
