<svg width="26" height="27" viewBox="0 0 26 27" fill="none" xmlns="http://www.w3.org/2000/svg">
<path d="M12.9883 26.1484C19.9141 26.1484 25.5977 20.4766 25.5977 13.5508C25.5977 6.625 19.9141 0.941406 12.9883 0.941406C6.0625 0.941406 0.390625 6.625 0.390625 13.5508C0.390625 20.4766 6.0625 26.1484 12.9883 26.1484ZM12.9883 17.7578C10.2695 17.7578 8.13672 18.6953 6.75391 19.9609C5.08984 18.332 4.04688 16.0703 4.04688 13.5508C4.04688 8.59375 8.04297 4.60938 12.9883 4.60938C17.9336 4.60938 21.9297 8.59375 21.9297 13.5508C21.9414 16.0703 20.8984 18.332 19.2344 19.9609C17.8516 18.6953 15.7188 17.7578 12.9883 17.7578ZM12.9883 16.0352C15.2969 16.0469 17.0781 14.0664 17.0781 11.5703C17.0781 9.21484 15.2734 7.1875 12.9883 7.1875C10.7031 7.1875 8.88672 9.21484 8.91016 11.5703C8.91016 14.0664 10.6797 16.0234 12.9883 16.0352Z" fill="#17BEBB"/>
</svg>
