<svg width="26" height="25" viewBox="0 0 26 25" fill="none" xmlns="http://www.w3.org/2000/svg">
<path d="M2.67578 24.6445C3.32031 24.6445 3.83594 24.4219 4.55078 24.0117L9.49609 21.3164L14.9805 24.3633C15.6602 24.7383 16.3516 24.9141 17.0312 24.9141C17.7344 24.9141 18.4375 24.7266 19.1055 24.3516L24.0508 21.5977C25.1992 20.9648 25.668 20.0859 25.668 18.8789V3.28125C25.668 1.92188 24.7422 1.00781 23.3242 1.00781C22.6797 1.00781 22.1875 1.28906 21.4609 1.69922L16.3984 4.5L10.8555 1.32422C10.1992 0.960938 9.48438 0.785156 8.78125 0.785156C8.125 0.785156 7.48047 0.9375 6.91797 1.26562L1.94922 4.03125C0.800781 4.66406 0.332031 5.47266 0.332031 6.67969V22.418C0.332031 23.7773 1.26953 24.6445 2.67578 24.6445ZM7.59766 18.5625L4.12891 20.4609C3.98828 20.543 3.88281 20.5664 3.78906 20.5664C3.55469 20.5664 3.4375 20.3672 3.4375 20.0977V7.71094C3.4375 7.23047 3.56641 7.03125 3.98828 6.78516L7.31641 4.91016C7.42188 4.85156 7.49219 4.81641 7.59766 4.75781V18.5625ZM10.8203 18.2461V5.15625C10.9375 5.21484 11.0664 5.28516 11.1836 5.35547L15.1797 7.65234V20.6602C15.0625 20.5898 14.9219 20.5312 14.793 20.4609L10.8203 18.2461ZM18.4141 20.7188V7.16016L21.8711 5.26172C21.9648 5.21484 22.0469 5.17969 22.1406 5.17969C22.3867 5.17969 22.5742 5.37891 22.5742 5.625V17.7656C22.5742 18.2461 22.4219 18.457 22.0117 18.6797L18.9648 20.4141C18.7773 20.5195 18.5898 20.625 18.4141 20.7188Z" fill="#17BEBB"/>
</svg>
