<svg width="20" height="20" viewBox="0 0 20 20" fill="none" xmlns="http://www.w3.org/2000/svg">
<rect width="19.1304" height="19.1304" transform="translate(0.536232 0.434784)" fill="white"/>
<path fill-rule="evenodd" clip-rule="evenodd" d="M18.9014 10.2083C18.9014 9.55834 18.8431 8.93334 18.7348 8.33334H10.1014V11.8792H15.0348C14.8223 13.025 14.1764 13.9958 13.2056 14.6458V16.9458H16.1681C17.9014 15.35 18.9014 13 18.9014 10.2083Z" fill="#4285F4"/>
<path fill-rule="evenodd" clip-rule="evenodd" d="M10.1014 19.1665C12.5764 19.1665 14.6514 18.3457 16.1681 16.9457L13.2056 14.6457C12.3847 15.1957 11.3347 15.5207 10.1014 15.5207C7.71388 15.5207 5.69305 13.9082 4.97222 11.7415H1.90972V14.1165C3.41805 17.1124 6.51805 19.1665 10.1014 19.1665Z" fill="#34A853"/>
<path fill-rule="evenodd" clip-rule="evenodd" d="M4.97228 11.7417C4.78895 11.1917 4.68478 10.6042 4.68478 10.0001C4.68478 9.39589 4.78895 8.80839 4.97228 8.25839V5.88339H1.90978C1.28895 7.12089 0.934784 8.52089 0.934784 10.0001C0.934784 11.4792 1.28895 12.8792 1.90978 14.1167L4.97228 11.7417Z" fill="#FBBC05"/>
<path fill-rule="evenodd" clip-rule="evenodd" d="M10.1014 4.47918C11.4472 4.47918 12.6556 4.94168 13.6056 5.85001L16.2347 3.22084C14.6472 1.74168 12.5722 0.833344 10.1014 0.833344C6.51805 0.833344 3.41805 2.88751 1.90972 5.88334L4.97222 8.25834C5.69305 6.09168 7.71388 4.47918 10.1014 4.47918Z" fill="#EA4335"/>
</svg>
