<svg width="212" height="158" viewBox="0 0 212 158" fill="none" xmlns="http://www.w3.org/2000/svg">
<path d="M42.7364 3.84185L27.369 37.5319C26.8929 38.5991 26.0474 39.1244 24.8242 39.1244H18.0846C16.8614 39.1244 16.0159 38.5908 15.5398 37.5319L0.238063 3.84185C0.0820907 3.44781 0 3.05377 0 2.65974C0 1.91271 0.254481 1.28062 0.763444 0.771653C1.27241 0.26269 1.92092 0 2.70899 0H7.9628C9.14491 0 9.96581 0.53359 10.4419 1.60077L21.516 27.1228L32.5161 1.60077C32.9923 0.53359 33.8378 0 35.0527 0H40.2491C41.0371 0 41.6857 0.26269 42.1946 0.79628C42.7036 1.32987 42.9663 1.94555 42.9663 2.65974C42.9663 3.05377 42.8842 3.44781 42.7282 3.84185H42.7364Z" fill="#FFF7F7"/>
<path d="M86.1788 26.5399C86.1788 29.9713 84.9146 32.9266 82.3944 35.4057C79.8742 37.8849 76.8369 39.1326 73.2906 39.1326H57.6851C54.0977 39.1326 51.0522 37.9341 48.5566 35.5289C46.0529 33.1236 44.8051 30.1273 44.8051 26.5481C44.8051 22.969 46.0446 20.0301 48.532 17.7398C51.0111 15.4577 54.0649 14.3084 57.6933 14.3084H76.016V12.3547C76.016 11.4106 75.7369 10.6307 75.1868 10.0233C74.6368 9.4158 74.0047 9.10386 73.2988 9.10386H63.3658C62.5367 9.10386 61.8389 8.81654 61.2643 8.25012C60.6896 7.67548 60.4105 6.97771 60.4105 6.14859V2.95527C60.4105 2.12615 60.6978 1.42838 61.2643 0.853743C61.8307 0.279108 62.5367 0 63.3658 0H73.2988C76.8451 0 79.8824 1.23136 82.4026 3.69408C84.9228 6.1568 86.187 9.07923 86.187 12.4696V26.5399H86.1788ZM76.016 26.778V23.4123H57.6933C56.9873 23.4123 56.3552 23.7242 55.8052 24.3563C55.2552 24.9884 54.9761 25.7765 54.9761 26.7205C54.9761 27.6646 55.247 28.4526 55.8052 29.0847C56.3552 29.7168 56.9873 30.0288 57.6933 30.0288H73.2988C74.0047 30.0288 74.6368 29.725 75.1868 29.1094C75.7369 28.5019 76.016 27.722 76.016 26.778Z" fill="#FFF7F7"/>
<path d="M138.306 36.4647C138.306 37.2117 138.027 37.8438 137.477 38.3528C136.927 38.8617 136.279 39.1244 135.524 39.1244H99.5268C98.7387 39.1244 98.082 38.87 97.5484 38.3528C97.0148 37.8438 96.7521 37.2117 96.7521 36.4647V32.6803C96.7521 31.9333 97.023 31.3012 97.5484 30.7922C98.082 30.2833 98.7469 30.0206 99.535 30.0206H112.464V9.10386H99.535C98.7469 9.10386 98.082 8.84938 97.5484 8.33221C97.0148 7.82324 96.7521 7.19115 96.7521 6.44412V2.65974C96.7521 1.91271 97.0148 1.28062 97.5484 0.771653C98.082 0.26269 98.7387 0 99.5268 0H135.524C136.271 0 136.919 0.254481 137.477 0.771653C138.027 1.28062 138.306 1.91271 138.306 2.65974V6.44412C138.306 7.19115 138.027 7.82324 137.477 8.33221C136.927 8.84117 136.279 9.10386 135.524 9.10386H122.635V30.0288H135.524C136.271 30.0288 136.919 30.2833 137.477 30.8004C138.027 31.3094 138.306 31.9415 138.306 32.6885V36.4729V36.4647Z" fill="#FFF7F7"/>
<path d="M45.4536 86.4415C45.4536 89.8319 44.1894 92.6968 41.6693 95.0446C39.1491 97.3924 36.0953 98.5581 32.5079 98.5581H7.74116C6.99413 98.5581 6.35382 98.3036 5.82023 97.7865C5.28664 97.2775 5.02395 96.6454 5.02395 95.8984V92.114C5.02395 91.367 5.28664 90.7349 5.82023 90.2259C6.35382 89.717 6.99413 89.4543 7.74937 89.4543H32.5654C33.2796 89.4543 33.9035 89.1751 34.4617 88.6251C35.0117 88.0751 35.2908 87.3445 35.2908 86.4415C35.2908 85.5385 35.0117 84.8161 34.4617 84.2825C33.9117 83.749 33.2796 83.4863 32.5654 83.4863H16.8696C13.2741 83.4863 10.2203 82.3452 7.6919 80.0549C5.16351 77.7727 3.89931 74.9324 3.89931 71.5421C3.89931 68.1517 5.16351 65.2868 7.68369 62.939C10.2121 60.5912 13.2659 59.4255 16.8614 59.4255H42.1946C42.9417 59.4255 43.582 59.68 44.1156 60.1971C44.6491 60.7061 44.9118 61.3382 44.9118 62.0852V69.9495C44.9118 70.6965 44.6491 71.3286 44.1156 71.8376C43.582 72.3466 42.9417 72.6092 42.1946 72.6092H38.0573C37.2692 72.6092 36.6125 72.3548 36.0789 71.8376C35.5453 71.3286 35.2826 70.6965 35.2826 69.9495V68.5293H16.804C16.0487 68.5293 15.4084 68.8084 14.8748 69.3585C14.3413 69.9085 14.0704 70.6391 14.0704 71.5421C14.0704 73.4302 14.9816 74.3824 16.7958 74.3824H32.4915C36.0871 74.3824 39.1409 75.5481 41.6693 77.8713C44.1976 80.1944 45.4618 83.0512 45.4618 86.4415H45.4536Z" fill="#FFF7F7"/>
<path d="M99.297 86.146C99.297 89.5774 98.0328 92.4998 95.5126 94.9215C92.9924 97.3432 89.955 98.5581 86.4087 98.5581H70.6884C67.101 98.5581 64.0554 97.4335 61.5599 95.1924C59.0561 92.9431 57.8083 90.111 57.8083 86.6796V71.3122C57.8083 67.8808 59.0561 65.0487 61.5599 62.7994C64.0636 60.5501 67.1092 59.4337 70.6884 59.4337H86.4087C89.9961 59.4337 93.0417 60.5583 95.5372 62.7994C98.041 65.0487 99.2888 67.8808 99.2888 71.3122V72.8473C99.2888 73.6764 99.0014 74.3742 98.435 74.9488C97.8604 75.5235 97.1626 75.8026 96.3335 75.8026H92.0812C91.2521 75.8026 90.5543 75.507 89.9797 74.916C89.405 74.3249 89.1259 73.6354 89.1259 72.8473V71.7801C89.1259 70.8771 88.8468 70.1055 88.2968 69.4734C87.7468 68.8413 87.1147 68.5293 86.4087 68.5293H70.6884C69.9824 68.5293 69.3503 68.8495 68.8003 69.4816C68.2503 70.1137 67.9712 70.8853 67.9712 71.7965V86.2035C67.9712 87.1557 68.242 87.9356 68.8003 88.543C69.3503 89.1587 69.9824 89.4625 70.6884 89.4625H86.4087C87.1147 89.4625 87.7468 89.1587 88.2968 88.543C88.8468 87.9274 89.1259 87.1393 89.1259 86.187V84.8736C89.1259 84.0445 89.4132 83.3385 89.9797 82.7556C90.5543 82.181 91.2521 81.8937 92.0812 81.8937H96.3335C97.1626 81.8937 97.8604 82.181 98.435 82.7474C99.0097 83.3221 99.2888 84.0198 99.2888 84.849V86.146H99.297Z" fill="#FFF7F7"/>
<path d="M153.789 95.8984C153.789 96.6454 153.526 97.2775 152.993 97.7865C152.459 98.2954 151.819 98.5581 151.072 98.5581H146.343C145.596 98.5581 144.956 98.3036 144.422 97.7865C143.889 97.2775 143.626 96.6454 143.626 95.8984V75.0309L135.171 84.8408C134.662 85.4729 133.972 85.7848 133.102 85.7848C132.232 85.7848 131.526 85.4482 130.976 84.7833L122.463 75.0309V95.8902C122.463 96.6372 122.2 97.2693 121.667 97.7783C121.133 98.2872 120.476 98.5499 119.688 98.5499H115.075C114.287 98.5499 113.63 98.2954 113.096 97.7783C112.563 97.2693 112.3 96.6372 112.3 95.8902V62.0852C112.3 61.3382 112.563 60.7061 113.096 60.1971C113.63 59.6882 114.287 59.4255 115.075 59.4255H120.501C121.363 59.4255 122.094 59.7703 122.685 60.4434L133.11 72.3876L143.47 60.4516C144.02 59.7703 144.726 59.4255 145.596 59.4255H151.08C151.827 59.4255 152.467 59.68 152.993 60.1971C153.526 60.7061 153.789 61.3382 153.789 62.0852V95.8902V95.8984Z" fill="#FFF7F7"/>
<path d="M79.8579 81.278V76.7302C79.8579 75.828 79.1265 75.0966 78.2243 75.0966H65.6644C64.7622 75.0966 64.0308 75.828 64.0308 76.7302V81.278C64.0308 82.1802 64.7622 82.9116 65.6644 82.9116H78.2243C79.1265 82.9116 79.8579 82.1802 79.8579 81.278Z" fill="#FFF7F7"/>
<path d="M83.6423 140.703V136.156C83.6423 135.253 82.911 134.522 82.0087 134.522H69.4489C68.5466 134.522 67.8153 135.253 67.8153 136.156V140.703C67.8153 141.606 68.5466 142.337 69.4489 142.337H82.0087C82.911 142.337 83.6423 141.606 83.6423 140.703Z" fill="#FFF7F7"/>
<path d="M47.3991 155.332C47.3991 156.079 47.1364 156.711 46.6029 157.22C46.0693 157.729 45.429 157.992 44.6819 157.992H39.9535C39.2065 157.992 38.5662 157.737 38.0326 157.22C37.499 156.711 37.2363 156.079 37.2363 155.332V134.465L28.781 144.274C28.272 144.907 27.5824 145.218 26.7123 145.218C25.8421 145.218 25.1361 144.882 24.5861 144.217L16.0733 134.465V155.324C16.0733 156.071 15.8106 156.703 15.277 157.212C14.7435 157.721 14.0867 157.984 13.2987 157.984H8.68516C7.89709 157.984 7.24036 157.729 6.70677 157.212C6.17318 156.703 5.91049 156.071 5.91049 155.324V121.519C5.91049 120.772 6.17318 120.14 6.70677 119.631C7.24036 119.122 7.89709 118.859 8.68516 118.859H14.1114C14.9733 118.859 15.7039 119.204 16.295 119.877L26.7205 131.821L37.0803 119.885C37.6303 119.204 38.3363 118.859 39.2065 118.859H44.6901C45.4372 118.859 46.0775 119.114 46.6029 119.631C47.1364 120.14 47.3991 120.772 47.3991 121.519V155.324V155.332Z" fill="#FFF7F7"/>
<path d="M103.081 145.58C103.081 149.011 101.817 151.933 99.297 154.355C96.7768 156.777 93.7394 157.992 90.1931 157.992H74.4727C70.8854 157.992 67.8398 156.867 65.3442 154.626C62.8405 152.377 61.5927 149.545 61.5927 146.113V130.746C61.5927 127.314 62.8405 124.482 65.3442 122.233C67.848 119.984 70.8936 118.867 74.4727 118.867H90.1931C93.7805 118.867 96.826 119.992 99.3216 122.233C101.825 124.482 103.073 127.314 103.073 130.746V132.281C103.073 133.11 102.786 133.808 102.219 134.382C101.645 134.957 100.947 135.236 100.118 135.236H95.8656C95.0364 135.236 94.3387 134.941 93.764 134.35C93.1894 133.759 92.9103 133.069 92.9103 132.281V131.214C92.9103 130.311 92.6312 129.539 92.0812 128.907C91.5312 128.275 90.8991 127.963 90.1931 127.963H74.4727C73.7667 127.963 73.1346 128.283 72.5846 128.915C72.0346 129.547 71.7555 130.319 71.7555 131.23V145.637C71.7555 146.589 72.0264 147.369 72.5846 147.977C73.1346 148.592 73.7667 148.896 74.4727 148.896H90.1931C90.8991 148.896 91.5312 148.592 92.0812 147.977C92.6312 147.361 92.9103 146.573 92.9103 145.621V144.307C92.9103 143.478 93.1976 142.772 93.764 142.189C94.3387 141.615 95.0364 141.327 95.8656 141.327H100.118C100.947 141.327 101.645 141.615 102.219 142.181C102.794 142.756 103.073 143.454 103.073 144.283V145.58H103.081Z" fill="#FFF7F7"/>
<path d="M158.87 138.372C158.87 143.889 156.851 148.535 152.812 152.319C148.773 156.104 143.856 157.992 138.068 157.992H118.859C118.071 157.992 117.414 157.737 116.881 157.22C116.347 156.711 116.085 156.079 116.085 155.332V121.527C116.085 120.78 116.347 120.148 116.881 119.639C117.414 119.13 118.071 118.867 118.859 118.867H138.068C143.864 118.867 148.773 120.739 152.812 124.482C156.851 128.226 158.87 132.856 158.87 138.372ZM148.707 138.372C148.707 135.335 147.681 132.847 145.629 130.894C143.577 128.94 141.065 127.971 138.101 127.971H126.247V148.896H138.101C141.065 148.896 143.577 147.903 145.629 145.908C147.681 143.921 148.707 141.409 148.707 138.372Z" fill="#FFF7F7"/>
<path d="M211.654 145.645C211.654 149.077 210.382 151.991 207.845 154.396C205.301 156.801 202.263 158 198.717 158H183.054C179.467 158 176.413 156.801 173.893 154.396C171.373 151.991 170.108 149.077 170.108 145.645V131.107C170.108 127.717 171.381 124.835 173.917 122.447C176.462 120.066 179.5 118.867 183.046 118.867H198.709C202.255 118.867 205.301 120.058 207.837 122.447C210.382 124.827 211.646 127.717 211.646 131.107V145.645H211.654ZM201.492 145.645V131.222C201.492 130.278 201.213 129.498 200.663 128.891C200.104 128.283 199.472 127.971 198.758 127.971H183.005C182.291 127.971 181.659 128.275 181.1 128.891C180.542 129.498 180.271 130.278 180.271 131.222V145.645C180.271 146.589 180.55 147.369 181.1 147.977C181.65 148.584 182.291 148.896 183.005 148.896H198.758C199.472 148.896 200.104 148.592 200.663 147.977C201.213 147.369 201.492 146.589 201.492 145.645Z" fill="#FFF7F7"/>
</svg>
