<svg width="120" height="46" viewBox="0 0 120 46" fill="none" xmlns="http://www.w3.org/2000/svg">
<path d="M26.8147 18.7486C26.0153 17.9616 25.0795 17.3357 24.0074 16.8709C22.9415 16.4123 21.7951 16.183 20.5805 16.183H8.81843C7.59761 16.183 6.45735 16.4123 5.38525 16.8709C4.31936 17.3357 3.3836 17.9616 2.58418 18.7486C1.77856 19.5356 1.14646 20.4652 0.687875 21.5373C0.229292 22.6094 0 23.7372 0 24.9271V36.9742C0 38.195 0.229292 39.3291 0.687875 40.3888C1.14646 41.4423 1.77856 42.3718 2.58418 43.1774C3.3836 43.9769 4.31936 44.609 5.38525 45.0737C6.45735 45.5323 7.59761 45.7616 8.81843 45.7616H20.5805C21.7951 45.7616 22.9415 45.5385 24.0074 45.0799C25.0795 44.6214 26.0153 43.9955 26.8147 43.196C27.6203 42.4028 28.2524 41.4794 28.711 40.4259C29.1696 39.3724 29.3989 38.2384 29.3989 37.0176V35.0531C29.3989 34.7308 29.3183 34.4024 29.1572 34.0739C28.9961 33.7455 28.7482 33.5844 28.426 33.5844H25.0176C24.6953 33.5844 24.3669 33.7455 24.0446 34.0739C23.7162 34.4024 23.5551 34.7308 23.5551 35.0531V37.0176C23.5551 37.9719 23.27 38.7837 22.7061 39.453C22.1421 40.1223 21.4419 40.4569 20.6053 40.4569H8.79364C7.95704 40.4569 7.25677 40.1223 6.69284 39.4468C6.1227 38.7775 5.84384 37.9657 5.84384 37.0114V24.9333C5.84384 23.9789 6.1227 23.1671 6.69284 22.4978C7.25677 21.8285 7.95704 21.4939 8.79364 21.4939H20.6053C21.4419 21.4939 22.1421 21.8285 22.7061 22.4978C23.27 23.1671 23.5551 23.9727 23.5551 24.9271V26.8915C23.5551 27.22 23.7162 27.5422 24.0446 27.8707C24.3669 28.1991 24.6953 28.3603 25.0176 28.3603H28.426C28.7482 28.3603 28.9961 28.1991 29.1572 27.8707C29.3183 27.5422 29.3989 27.22 29.3989 26.8915V24.9271C29.3989 23.7372 29.1696 22.6094 28.711 21.5373C28.2524 20.4652 27.6203 19.5356 26.8147 18.7486Z" fill="#17BEBB"/>
<path d="M49.8492 16.183H34.4557C34.1272 16.183 33.8546 16.3008 33.6315 16.5363C33.4084 16.7717 33.2968 17.0506 33.2968 17.3791V20.2979C33.2968 20.6201 33.4084 20.9052 33.6315 21.1407C33.8546 21.3762 34.1272 21.4939 34.4557 21.4939H38.0252C38.3536 21.4939 38.6263 21.6054 38.8494 21.8285C39.0725 22.0516 39.184 22.3243 39.184 22.6528V39.2485C39.184 39.5769 39.0725 39.8558 38.8494 40.0975C38.6263 40.333 38.3536 40.4569 38.0252 40.4569H34.5053C33.8422 40.4569 33.2968 40.9961 33.2968 41.6592V44.5594C33.2968 45.2225 33.8422 45.7616 34.5053 45.7616H49.7996C50.4689 45.7616 51.008 45.2225 51.008 44.5594V41.6592C51.008 40.9961 50.4689 40.4569 49.7996 40.4569H46.2797C45.9512 40.4569 45.6786 40.333 45.4555 40.0975C45.2324 39.8558 45.1208 39.5769 45.1208 39.2485V22.6528C45.1208 22.3243 45.2324 22.0516 45.4555 21.8285C45.6786 21.6054 45.9512 21.4939 46.2797 21.4939H49.8492C50.1776 21.4939 50.4503 21.3762 50.6734 21.1407C50.8965 20.9052 51.008 20.6201 51.008 20.2979V17.3791C51.008 17.0506 50.8965 16.7717 50.6734 16.5363C50.4503 16.3008 50.1776 16.183 49.8492 16.183Z" fill="#17BEBB"/>
<path d="M81.1444 28.9428C80.878 28.825 80.6797 28.6701 80.5433 28.4718C80.4132 28.2797 80.345 28.069 80.345 27.8273C80.345 27.6786 80.3574 27.5608 80.3884 27.4679C80.5371 27.0527 80.6425 26.6065 80.6982 26.1293C80.7602 25.6583 80.7912 25.2555 80.7912 24.9271V17.3852C80.7912 17.0568 80.6796 16.7779 80.4565 16.5363C80.2335 16.3008 79.9546 16.183 79.6323 16.183H76.0628C75.7344 16.183 75.4555 16.3008 75.2324 16.5363C75.0093 16.7779 74.8978 17.0568 74.8978 17.3852V24.9271C74.8978 25.8814 74.6127 26.6808 74.0302 27.3377C73.4477 27.9884 72.7412 28.3169 71.9108 28.3169H62.4541C62.1256 28.3169 61.8468 28.2053 61.6237 27.9822C61.4006 27.7591 61.289 27.4865 61.289 27.158V17.3852C61.289 17.0568 61.1713 16.7779 60.9358 16.5363C60.6941 16.3008 60.4152 16.183 60.0868 16.183H56.5607C56.2322 16.183 55.9533 16.3008 55.7117 16.5363C55.4762 16.7779 55.3584 17.0568 55.3584 17.3852V44.5594C55.3584 44.8878 55.4762 45.1667 55.7117 45.4084C55.9533 45.6439 56.2322 45.7616 56.5607 45.7616H60.0868C60.4152 45.7616 60.6941 45.6439 60.9358 45.4084C61.1713 45.1667 61.289 44.8878 61.289 44.5594V34.83C61.289 34.5077 61.4006 34.2227 61.6237 33.9872C61.8468 33.7455 62.1256 33.6278 62.4541 33.6278H77.8476C78.647 33.6278 79.3411 33.9624 79.9174 34.6317C80.4999 35.301 80.7912 36.1128 80.7912 37.0609V44.5594C80.7912 44.8878 80.9089 45.1667 81.1444 45.4084C81.3861 45.6439 81.665 45.7616 81.9934 45.7616H85.5196C85.848 45.7616 86.1269 45.6439 86.3686 45.4084C86.604 45.1667 86.7218 44.8878 86.7218 44.5594V37.0609C86.7218 35.2204 86.2136 33.5782 85.1849 32.1343C84.1562 30.6904 82.8114 29.6307 81.1444 28.9428Z" fill="#17BEBB"/>
<path d="M16.4036 28.3169H13.1812C12.5138 28.3169 11.9727 28.8579 11.9727 29.5253V32.4194C11.9727 33.0868 12.5138 33.6278 13.1812 33.6278H16.4036C17.071 33.6278 17.6121 33.0868 17.6121 32.4194V29.5253C17.6121 28.8579 17.071 28.3169 16.4036 28.3169Z" fill="#17BEBB"/>
<path d="M34.6089 1.09286L32.5625 3.13925C32.0906 3.61117 32.0906 4.37631 32.5625 4.84823L39.9856 12.2713C40.4575 12.7432 41.2226 12.7432 41.6946 12.2713L43.741 10.2249C44.2129 9.75301 44.2129 8.98787 43.741 8.51595L36.3179 1.09286C35.8459 0.620943 35.0808 0.620942 34.6089 1.09286Z" fill="#17BEBB"/>
<path d="M114.063 27.8707C114.385 28.1991 114.714 28.3603 115.036 28.3603H118.445C118.767 28.3603 119.015 28.1991 119.176 27.8707C119.337 27.5422 119.418 27.22 119.418 26.8915V24.9271C119.418 23.7372 119.188 22.6094 118.73 21.5373C118.271 20.4652 117.639 19.5356 116.833 18.7486C116.034 17.9616 115.098 17.3357 114.026 16.8709C112.96 16.4123 111.814 16.183 110.599 16.183H98.8371C97.6162 16.183 96.476 16.4123 95.4039 16.8709C94.338 17.3357 93.4022 17.9616 92.6028 18.7486C91.7972 19.5356 91.1651 20.4652 90.7065 21.5373C90.2479 22.6094 90.0186 23.7372 90.0186 24.9271V36.9742C90.0186 38.195 90.2479 39.3291 90.7065 40.3888C91.1651 41.4423 91.7972 42.3718 92.6028 43.1774C93.4022 43.9769 94.338 44.609 95.4039 45.0737C96.476 45.5323 97.6162 45.7616 98.8371 45.7616H110.599C111.814 45.7616 112.96 45.5385 114.026 45.0799C115.098 44.6214 116.034 43.9955 116.833 43.196C117.639 42.4028 118.271 41.4794 118.73 40.4259C119.188 39.3724 119.418 38.2384 119.418 37.0176V35.0531C119.418 34.7308 119.337 34.4024 119.176 34.0739C119.015 33.7455 118.767 33.5844 118.445 33.5844H115.036C114.714 33.5844 114.385 33.7455 114.063 34.0739C113.735 34.4024 113.574 34.7308 113.574 35.0531V37.0176C113.574 37.9719 113.289 38.7837 112.725 39.453C112.161 40.1223 111.46 40.4569 110.624 40.4569H98.8123C97.9757 40.4569 97.2754 40.1223 96.7115 39.4468C96.1413 38.7775 95.8625 37.9657 95.8625 37.0114V33.6278H106.336C106.999 33.6278 107.544 33.0886 107.544 32.4193V29.5191C107.544 28.856 107.005 28.3107 106.336 28.3107H95.8625V24.9271C95.8625 23.9727 96.1413 23.1609 96.7115 22.4916C97.2754 21.8224 97.9757 21.4877 98.8123 21.4877H110.624C111.46 21.4877 112.161 21.8224 112.725 22.4916C113.289 23.1609 113.574 23.9665 113.574 24.9209V26.8854C113.574 27.2138 113.735 27.536 114.063 27.8645V27.8707Z" fill="#17BEBB"/>
</svg>
