<svg width="15" height="14" viewBox="0 0 15 14" fill="none" xmlns="http://www.w3.org/2000/svg">
<path d="M0.623047 5.89551C0.623047 9.07422 3.2002 11.6514 6.37891 11.6514C7.43848 11.6514 8.41602 11.3574 9.25 10.8516L11.998 13.5996C12.2646 13.8662 12.6201 13.9961 12.9893 13.9961C13.7822 13.9961 14.3701 13.3945 14.3701 12.6152C14.3701 12.2461 14.2402 11.9043 13.9736 11.6309L11.2529 8.90332C11.8135 8.04199 12.1416 7.00977 12.1416 5.89551C12.1416 2.70996 9.56445 0.132812 6.37891 0.132812C3.2002 0.132812 0.623047 2.70996 0.623047 5.89551ZM2.57129 5.89551C2.57129 3.79004 4.28027 2.08789 6.37891 2.08789C8.48438 2.08789 10.1934 3.79004 10.1934 5.89551C10.1934 8.00098 8.48438 9.70312 6.37891 9.70312C4.28027 9.70312 2.57129 8.00098 2.57129 5.89551Z" fill="#2E282A"/>
</svg>
